<svg data-v-423bf9ae="" xmlns="http://www.w3.org/2000/svg" viewBox="0 0 385 90" class="iconLeft"><!----><!----><!----><g data-v-423bf9ae="" id="a29cc36c-1d8d-4189-b2ab-25aab02378b9" fill="#2e3034" transform="matrix(6.109979823280842,0,0,6.109979823280842,116.62495707351027,-11.334014119236052)"><path d="M9.18 4.31L6.23 12.03L3.28 4.31L1.02 4.31L1.02 14L2.55 14L2.55 6.17L5.53 14L6.93 14L9.91 6.17L9.91 14L11.44 14L11.44 4.31ZM18.83 7.11L18.83 8.11C18.23 7.41 17.35 6.99 16.32 6.99C14.38 6.99 12.95 8.48 12.95 10.56C12.95 12.63 14.38 14.13 16.32 14.13C17.35 14.13 18.23 13.71 18.83 13.01L18.83 14L20.26 14L20.26 7.11ZM16.62 12.88C15.34 12.88 14.42 11.91 14.42 10.56C14.42 9.21 15.34 8.23 16.62 8.23C17.91 8.23 18.83 9.21 18.83 10.56C18.83 11.91 17.91 12.88 16.62 12.88ZM26.88 7.11L24.84 12.59L22.79 7.11L21.27 7.11L23.98 14L25.69 14L28.41 7.11ZM36.18 10.57C36.16 8.48 34.64 6.99 32.51 6.99C30.38 6.99 28.83 8.48 28.83 10.56C28.83 12.63 30.38 14.13 32.51 14.13C34.20 14.13 35.67 13.03 36.06 11.51L34.61 11.51C34.34 12.33 33.50 12.95 32.52 12.95C31.33 12.95 30.42 12.15 30.24 11.00L36.13 11.00C36.16 10.86 36.18 10.71 36.18 10.57ZM32.52 8.16C33.66 8.16 34.57 8.88 34.80 9.90L30.28 9.90C30.53 8.86 31.40 8.16 32.52 8.16ZM41.12 6.99C40.17 6.99 39.40 7.41 38.95 8.15L38.95 7.11L37.52 7.11L37.52 14L38.95 14L38.95 9.97C38.95 8.86 39.63 8.13 40.70 8.13C41.73 8.13 42.41 8.86 42.41 9.97L42.41 14L43.85 14L43.85 9.77C43.85 8.11 42.70 6.99 41.12 6.99Z"></path></g><!----><g data-v-423bf9ae="" id="7f6e7bf6-5840-4c70-9a2d-20581c90a2d9" transform="matrix(1.2857142857142858,0,0,1.2857142857142858,-12.285714285714292,-19.285714285714292)" stroke="none" fill="#488eff"><path d="M60 25c0-5.52-4.48-10-10-10v30h20c11.05 0 20-8.96 20-20H60zm0 9c-1.1 0-2-.9-2-2s.9-2 2-2 2 .9 2 2-.9 2-2 2zM60 85H10V15c5.52 0 10 4.48 10 10v22.7c2.94-1.72 6.36-2.7 10-2.7h20v20c0 3.64-.98 7.06-2.69 10H50c5.52 0 10 4.48 10 10z"></path></g><!----></svg>